<svg width="110" height="35" fill="none" xmlns="http://www.w3.org/2000/svg"><path d="M17.058 21.042c.63 0 1.148-.494 1.148-1.1l.007-10.508c0-.607-.513-1.107-1.142-1.107-.63 0-1.149.494-1.149 1.1l-.013 10.508c0 .613.513 1.107 1.149 1.107zM34.741 8.333c-3.64 0-6.593 2.846-6.593 6.354 0 3.51 2.953 6.355 6.593 6.355s6.593-2.846 6.593-6.355c.007-3.508-2.946-6.354-6.593-6.354zm0 10.501c-2.375 0-4.302-1.857-4.302-4.146 0-2.29 1.927-4.147 4.302-4.147 2.375 0 4.303 1.857 4.303 4.146 0 2.29-1.928 4.147-4.303 4.147zM27.006 8.333a6.712 6.712 0 00-4.31 1.551V9.44c0-.606-.512-1.107-1.141-1.107-.636 0-1.149.494-1.149 1.1v10.502c0 .613.513 1.107 1.142 1.107.636 0 1.149-.494 1.149-1.1v-5.255h.013c0-2.282 1.914-4.133 4.283-4.146h.039c.623-.013 1.129-.5 1.129-1.107-.013-.607-.526-1.1-1.155-1.1zm21.999 13.778c-3.64 0-6.594 2.846-6.594 6.355 0 3.508 2.953 6.354 6.594 6.354 3.64 0 6.593-2.846 6.593-6.354 0-3.509-2.953-6.355-6.593-6.355zm0 10.501c-2.376 0-4.303-1.857-4.303-4.146 0-2.29 1.928-4.147 4.303-4.147s4.302 1.858 4.302 4.147-1.927 4.146-4.302 4.146zM72.133 8.34c-3.64 0-6.593 2.845-6.593 6.354 0 3.508 2.952 6.354 6.593 6.354 3.64 0 6.593-2.846 6.593-6.354.006-3.515-2.946-6.355-6.593-6.355zm0 10.5c-2.376 0-4.303-1.857-4.303-4.146 0-2.29 1.927-4.147 4.303-4.147 2.375 0 4.302 1.858 4.302 4.147.007 2.289-1.92 4.146-4.302 4.146zM49.005 8.333c-3.64 0-6.594 2.846-6.594 6.354 0 3.51 2.953 6.355 6.594 6.355 3.64 0 6.593-2.846 6.593-6.355 0-3.508-2.953-6.354-6.593-6.354zm0 10.507c-2.376 0-4.303-1.857-4.303-4.146 0-2.29 1.928-4.147 4.303-4.147s4.302 1.858 4.302 4.147-1.927 4.146-4.302 4.146zM92.996 8.333c-.636 0-1.149.494-1.149 1.1v5.255h-.006c0 2.289-1.928 4.146-4.303 4.146s-4.302-1.857-4.302-4.146V9.434c0-.613-.513-1.107-1.142-1.107-.63 0-1.142.494-1.142 1.1v5.254c0 3.509 2.952 6.355 6.593 6.355 3.64 0 6.593-2.846 6.593-6.355h.006V9.428c0-.6-.512-1.095-1.148-1.095zm-28.599 0a6.712 6.712 0 00-4.309 1.551v-.45c0-.613-.512-1.1-1.142-1.1-.636 0-1.148.493-1.148 1.1V19.94c0 .613.512 1.107 1.142 1.107.636 0 1.148-.494 1.148-1.1v-5.254h.013c0-2.283 1.915-4.134 4.283-4.147h.04c.622-.012 1.128-.5 1.128-1.107a1.149 1.149 0 00-1.155-1.107zm38.554 0a6.723 6.723 0 00-4.303 1.545v-.444c0-.613-.513-1.107-1.148-1.107-.63 0-1.15.494-1.15 1.1v15.837c0 .612.514 1.107 1.143 1.107.636 0 1.149-.495 1.149-1.101v-5.774a6.707 6.707 0 004.302 1.551c3.641 0 6.593-2.846 6.593-6.354.007-3.515-2.939-6.36-6.586-6.36zm0 10.507c-2.376 0-4.303-1.857-4.303-4.146 0-2.29 1.927-4.147 4.303-4.147 2.375 0 4.302 1.858 4.302 4.147s-1.927 4.146-4.302 4.146zm-91.526-4.171l.006 5.272c0 .607.513 1.1 1.143 1.1.636 0 1.142-.493 1.142-1.106l-.007-5.247v-.376c0-.081-.013-.162-.032-.244-.325-3.22-3.135-5.741-6.561-5.741a6.724 6.724 0 00-4.302 1.545v-.438c0-.013 0-.025-.007-.038l.02-7.398c0-.613-.513-1.107-1.15-1.107-.629 0-1.141.494-1.141 1.1L.529 12.105v7.83c0 .613.513 1.107 1.142 1.107.636 0 1.149-.494 1.149-1.1v-5.255c0-2.288 1.927-4.146 4.302-4.146 2.37 0 4.29 1.845 4.303 4.128z" fill="#000"/></svg>